# xmcd
#
# Track frame offsets: 
#        150
#        24938
#        45176
#        67577
#        85047
#        107903
#        131385
#        150864
#        167872
#        185659
#        204642
#
# Disc length: 3410 seconds
#
# Revision: 1
# Processed by: cddbd v1.5.2PL0 Copyright (c) Steve Scherf et al.
# Submitted via: ExactAudioCopy v0.99pb4
#
DISCID=7a0d500b
DTITLE=Dagon - Paranormal Ichthyology
DYEAR=2007
DGENRE=Metal
TTITLE0=The Battle of Black Water
TTITLE1=Human Chum
TTITLE2=Pirate Hunter
TTITLE3=Mare Nostrum
TTITLE4=It Came From Beneath the Waves
TTITLE5=Blackbeard
TTITLE6=We Will Destroy
TTITLE7=Children of Poseidon I
TTITLE8=Children of Poseidon II
TTITLE9=Children of Poseidon III
TTITLE10=Widows in the Wake
EXTD=qq
EXTT0=
EXTT1=
EXTT2=
EXTT3=
EXTT4=
EXTT5=
EXTT6=
EXTT7=
EXTT8=
EXTT9=
EXTT10=
PLAYORDER=
